<?xml version="1.0" encoding="UTF-8"?>
<svg version="1.1" xmlns="http://www.w3.org/2000/svg" width="512" height="512">
<path d="M0 0 C45.92623557 40.86828011 75.01586734 98.62969359 82.33837891 159.53417969 C82.4326416 160.30197754 82.5269043 161.06977539 82.62402344 161.86083984 C89.85001014 229.32492678 70.2386434 297.66285171 27.65087891 350.47167969 C24.02163292 354.80314867 20.26935002 359.01739243 16.45947266 363.19042969 C14.52006388 365.33342281 12.64508592 367.51762607 10.77587891 369.72167969 C7.89614331 373.02412877 4.80809232 375.8885979 1.46337891 378.71386719 C0.03772869 379.93510432 -1.35850794 381.19147069 -2.72412109 382.47949219 C-36.03265536 413.8218977 -80.91442787 434.50377955 -125.66162109 442.53417969 C-126.31630371 442.65806061 -126.97098633 442.78194153 -127.64550781 442.90957642 C-141.3789686 445.46240018 -154.86256945 446.0322729 -168.81347656 445.98022461 C-172.26216972 445.97173984 -175.70918471 446.0005639 -179.15771484 446.03222656 C-235.75922465 446.21117164 -290.86486772 425.02374575 -334.66162109 389.53417969 C-335.21140625 389.08880859 -335.76119141 388.6434375 -336.32763672 388.18457031 C-350.04361712 376.96815727 -362.84663533 364.591609 -373.66162109 350.53417969 C-374.43376953 349.57898438 -375.20591797 348.62378906 -376.00146484 347.63964844 C-393.46248799 325.70992743 -406.26664605 300.8619035 -415.66162109 274.53417969 C-416.10030518 273.30900635 -416.10030518 273.30900635 -416.54785156 272.05908203 C-419.86037725 262.63683011 -422.34023924 253.11495331 -424.41162109 243.34667969 C-424.70987793 241.94107788 -424.70987793 241.94107788 -425.01416016 240.50708008 C-428.365854 223.85640546 -429.06717413 207.66411256 -429.03662109 190.72167969 C-429.03607727 189.59000366 -429.03553345 188.45832764 -429.03497314 187.2923584 C-428.99760474 170.39167474 -428.43826781 154.07663449 -424.66162109 137.53417969 C-424.44199707 136.54756348 -424.22237305 135.56094727 -423.99609375 134.54443359 C-419.40688065 114.44348536 -412.59162142 95.10891671 -403.66162109 76.53417969 C-403.1637207 75.49729004 -403.1637207 75.49729004 -402.65576172 74.43945312 C-391.27563176 51.11789085 -375.63375568 30.15826596 -357.66162109 11.53417969 C-357.09507812 10.94572266 -356.52853516 10.35726562 -355.94482422 9.75097656 C-318.92102415 -28.50013179 -269.24549585 -54.76787117 -216.66162109 -63.46582031 C-215.68966797 -63.62663086 -214.71771484 -63.78744141 -213.71630859 -63.953125 C-135.77122899 -76.16351376 -58.75437363 -51.83092261 0 0 Z M-321.66162109 76.53417969 C-318.63624603 80.31589851 -316.45687786 82.70175072 -312.78662109 85.59667969 C-308.33682687 89.16244813 -303.97685648 92.80684942 -299.66162109 96.53417969 C-295.53739544 100.08921984 -291.38952203 103.60211893 -287.16162109 107.03417969 C-282.3156532 110.96796539 -277.58063581 115.01865728 -272.85302734 119.09277344 C-269.32844206 122.12376253 -265.77113277 125.1041055 -262.16162109 128.03417969 C-257.3156532 131.96796539 -252.58063581 136.01865728 -247.85302734 140.09277344 C-244.32844206 143.12376253 -240.77113277 146.1041055 -237.16162109 149.03417969 C-232.3156532 152.96796539 -227.58063581 157.01865728 -222.85302734 161.09277344 C-219.32844206 164.12376253 -215.77113277 167.1041055 -212.16162109 170.03417969 C-207.3201021 173.96435393 -202.58899718 178.01084041 -197.86621094 182.08178711 C-193.35575577 185.96127489 -188.76882174 189.73742642 -184.14990234 193.48730469 C-180.58209837 196.42220152 -177.11041812 199.46089638 -173.66162109 202.53417969 C-168.11744003 198.51193068 -162.85927207 194.21610693 -157.65087891 189.77294922 C-154.20865048 186.83786128 -150.73752756 183.94678818 -147.22412109 181.09667969 C-142.36033084 177.13909781 -137.60280878 173.06875522 -132.85327148 168.97583008 C-128.46361759 165.20083578 -124.00047338 161.52689507 -119.50537109 157.87792969 C-116.18475624 155.1411592 -112.92115327 152.34315018 -109.66162109 149.53417969 C-104.67221342 145.23445256 -99.61940954 141.0293256 -94.50537109 136.87792969 C-91.18475624 134.1411592 -87.92115327 131.34315018 -84.66162109 128.53417969 C-79.67221342 124.23445256 -74.61940954 120.0293256 -69.50537109 115.87792969 C-66.18475624 113.1411592 -62.92115327 110.34315018 -59.66162109 107.53417969 C-55.53693905 103.97964808 -51.38954398 100.46625826 -47.16162109 97.03417969 C-42.79834849 93.48780508 -38.4979658 89.87484156 -34.22412109 86.22167969 C-33.33660156 85.46564453 -33.33660156 85.46564453 -32.43115234 84.69433594 C-31.86912109 84.21222656 -31.30708984 83.73011719 -30.72802734 83.23339844 C-30.23246338 82.80889404 -29.73689941 82.38438965 -29.22631836 81.94702148 C-27.30573099 80.21282909 -25.49138598 78.36394458 -23.66162109 76.53417969 C-122.00162109 76.53417969 -220.34162109 76.53417969 -321.66162109 76.53417969 Z M-334.66162109 82.53417969 C-334.66162109 153.48417969 -334.66162109 224.43417969 -334.66162109 297.53417969 C-328.01956213 292.57113444 -328.01956213 292.57113444 -321.84912109 287.22167969 C-317.54284274 283.28957491 -313.1020329 279.57926014 -308.57177734 275.90917969 C-305.44732321 273.3592896 -302.36189305 270.76794424 -299.28662109 268.15917969 C-298.47318237 267.46937012 -298.47318237 267.46937012 -297.64331055 266.765625 C-295.98214341 265.35585256 -294.32174141 263.94518464 -292.66162109 262.53417969 C-286.55274074 257.34198947 -280.44651469 252.15294388 -274.22412109 247.09667969 C-269.36033084 243.13909781 -264.60280878 239.06875522 -259.85327148 234.97583008 C-255.46361759 231.20083578 -251.00047338 227.52689507 -246.50537109 223.87792969 C-243.18475408 221.14115742 -239.92121475 218.34308148 -236.66162109 215.53417969 C-231.63874801 211.20730417 -226.56192423 206.96028283 -221.41552734 202.78027344 C-216.46250515 198.74057449 -211.56535258 194.63345959 -206.66162109 190.53417969 C-209.35113855 186.96886094 -212.10031729 184.17665457 -215.59912109 181.40917969 C-216.56978516 180.63058594 -217.54044922 179.85199219 -218.54052734 179.04980469 C-219.05115723 178.64052734 -219.56178711 178.23125 -220.08789062 177.80957031 C-222.7723317 175.63403197 -225.40371007 173.39657884 -228.03662109 171.15917969 C-228.84933472 170.46985352 -228.84933472 170.46985352 -229.6784668 169.76660156 C-231.89594322 167.88506676 -234.11173389 166.00155158 -236.32763672 164.11816406 C-241.88230143 159.39898358 -247.44222035 154.6934292 -253.09912109 150.09667969 C-257.96291134 146.13909781 -262.72043341 142.06875522 -267.4699707 137.97583008 C-270.99461028 134.94472679 -274.55201992 131.96432652 -278.16162109 129.03417969 C-283.00758899 125.10039399 -287.74260637 121.04970209 -292.47021484 116.97558594 C-295.99480012 113.94459685 -299.55210942 110.96425387 -303.16162109 108.03417969 C-307.38955526 104.60209196 -311.5367131 101.08846146 -315.66162109 97.53417969 C-324.68217397 88.25367478 -324.68217397 88.25367478 -334.66162109 82.53417969 Z M-31.46704102 99.08984375 C-35.85750156 102.86593951 -40.32173842 106.54062787 -44.81787109 110.19042969 C-48.13848595 112.92720017 -51.40208891 115.72520919 -54.66162109 118.53417969 C-59.65102876 122.83390682 -64.70383265 127.03903378 -69.81787109 131.19042969 C-73.13848595 133.92720017 -76.40208891 136.72520919 -79.66162109 139.53417969 C-84.65102876 143.83390682 -89.70383265 148.03903378 -94.81787109 152.19042969 C-98.13848595 154.92720017 -101.40208891 157.72520919 -104.66162109 160.53417969 C-108.78630314 164.0887113 -112.93369821 167.60210111 -117.16162109 171.03417969 C-121.54840474 174.5984414 -125.86757908 178.23425805 -130.16162109 181.90917969 C-131.06170898 182.6777832 -131.06170898 182.6777832 -131.97998047 183.46191406 C-134.63289004 185.73972582 -137.21105889 188.04083278 -139.66162109 190.53417969 C-139.01837891 191.05625 -138.37513672 191.57832031 -137.71240234 192.11621094 C-129.71955498 198.62678989 -121.85022338 205.2742305 -113.99560547 211.95019531 C-108.44094076 216.66937579 -102.88102184 221.37493018 -97.22412109 225.97167969 C-92.36033084 229.92926157 -87.60280878 233.99960415 -82.85327148 238.0925293 C-79.32863191 241.12363258 -75.77122227 244.10403285 -72.16162109 247.03417969 C-67.3156532 250.96796539 -62.58063581 255.01865728 -57.85302734 259.09277344 C-54.32844206 262.12376253 -50.77113277 265.1041055 -47.16162109 268.03417969 C-42.93368289 271.4662707 -38.78661581 274.97999505 -34.66162109 278.53417969 C-23.04797398 288.52942516 -23.04797398 288.52942516 -10.66162109 297.53417969 C-10.66162109 226.58417969 -10.66162109 155.63417969 -10.66162109 82.53417969 C-16.1085297 82.53417969 -27.0569401 95.2898217 -31.46704102 99.08984375 Z M-197.66162109 197.53417969 C-198.25587891 198.07945312 -198.85013672 198.62472656 -199.46240234 199.18652344 C-204.74172122 203.98963625 -210.12996174 208.59542148 -215.67724609 213.08496094 C-219.04923472 215.85228668 -222.35827555 218.68564908 -225.66162109 221.53417969 C-230.65087803 225.83407819 -235.70383844 230.03903847 -240.81787109 234.19042969 C-244.13848595 236.92720017 -247.40208891 239.72520919 -250.66162109 242.53417969 C-255.65102876 246.83390682 -260.70383265 251.03903378 -265.81787109 255.19042969 C-269.13848595 257.92720017 -272.40208891 260.72520919 -275.66162109 263.53417969 C-280.65102876 267.83390682 -285.70383265 272.03903378 -290.81787109 276.19042969 C-294.74514344 279.42719261 -298.59465571 282.75135849 -302.44824219 286.07519531 C-307.01520311 290.00522852 -311.65737941 293.82560886 -316.35693359 297.59667969 C-318.56663923 299.45433053 -320.62033894 301.49289754 -322.66162109 303.53417969 C-223.99162109 303.53417969 -125.32162109 303.53417969 -23.66162109 303.53417969 C-30.97515531 296.22064547 -38.64060962 289.48762542 -46.67724609 282.98339844 C-50.04923472 280.21607269 -53.35827555 277.38271029 -56.66162109 274.53417969 C-60.78617721 270.97950754 -64.93370421 267.46625339 -69.16162109 264.03417969 C-74.00758899 260.10039399 -78.74260637 256.04970209 -83.47021484 251.97558594 C-86.99480012 248.94459685 -90.55210942 245.96425387 -94.16162109 243.03417969 C-99.00758899 239.10039399 -103.74260637 235.04970209 -108.47021484 230.97558594 C-112.85705449 227.20309583 -117.31664596 223.53084093 -121.81005859 219.88574219 C-125.17816161 217.10821066 -128.48166407 214.26121559 -131.78662109 211.40917969 C-134.07481881 209.44676032 -136.36761659 207.48980458 -138.66162109 205.53417969 C-140.02287109 204.36822266 -140.02287109 204.36822266 -141.41162109 203.17871094 C-142.58724609 202.20998047 -142.58724609 202.20998047 -143.78662109 201.22167969 C-144.44919922 200.66867187 -145.11177734 200.11566406 -145.79443359 199.54589844 C-147.59315575 198.36683565 -147.59315575 198.36683565 -149.60693359 198.60449219 C-152.38619751 199.86202985 -154.20269086 201.62178901 -156.41162109 203.72167969 C-168.43164526 214.83754275 -168.43164526 214.83754275 -173.66162109 215.53417969 C-179.7670567 212.91756443 -184.14319303 208.51544066 -188.91552734 203.97167969 C-191.71825459 201.48391041 -194.5048746 199.53669728 -197.66162109 197.53417969 Z " fill="#FC0004" transform="translate(428.66162109375,66.4658203125)"/>
</svg>
