<?xml version="1.0" encoding="UTF-8"?>
<svg version="1.1" xmlns="http://www.w3.org/2000/svg" width="671" height="666">
<path d="M0 0 C3.94086057 0.61589487 5.54860677 2.78105675 7.95970345 5.72214031 C9.01456474 6.93260561 10.07434153 8.13879831 11.13801765 9.34152508 C11.72017918 10.00173656 12.3023407 10.66194805 12.90214348 11.34216595 C16.42533882 15.21710908 20.16880914 18.87078559 23.89769173 22.54635906 C24.72699039 23.36633625 25.55628904 24.18631344 26.41071796 25.03113842 C28.16101302 26.76071042 29.91225317 28.48932645 31.66436386 30.21705914 C35.88947558 34.38696774 40.10144737 38.57011361 44.31508386 42.7516098 C50.75251821 49.13932962 57.19465523 55.52214497 63.65452766 61.88717937 C68.51232908 66.67378069 73.35436965 71.47588587 78.18743134 76.28746319 C80.02775212 78.11417207 81.87348301 79.93544701 83.72463608 81.75117779 C86.2975344 84.27609357 88.85142927 86.81883066 91.40159798 89.36667156 C92.17180275 90.11373363 92.94200752 90.86079571 93.73555183 91.63049603 C94.42362419 92.32537121 95.11169655 93.02024639 95.82061958 93.7361784 C96.72779087 94.63310532 96.72779087 94.63310532 97.65328884 95.54815197 C98.8085804 97.43893719 98.8085804 97.43893719 98.65237141 99.98493481 C97.3769917 103.69412916 94.74220665 105.99601 91.9804554 108.65768719 C91.3944355 109.23804729 90.8084156 109.8184074 90.20463753 110.41635418 C88.33181987 112.26683862 86.44560442 114.10295286 84.5585804 115.93893719 C83.30375726 117.17368316 82.04984065 118.40935113 80.79686165 119.64596844 C78.01562811 122.38802448 75.22587635 125.12106408 72.42814827 127.84628582 C71.17105235 129.08248936 69.92727801 130.33224635 68.68904781 131.58734608 C65.92846197 134.34926156 63.08068477 137.01188381 60.22544485 139.67536318 C50.3295936 148.90853815 40.69876349 158.38770766 31.12132454 167.94919109 C29.42767766 169.63655176 27.73384992 171.32373091 26.03985786 173.01074505 C20.55434407 178.47551857 15.07389293 183.94535448 9.59373665 189.41549969 C8.17250323 190.83376366 6.75120334 192.25196098 5.3298903 193.67014516 C-3.0363151 202.01794739 -11.40119758 210.36707263 -19.76207447 218.72021198 C-21.79149158 220.74772002 -23.8209144 222.77522234 -25.85035515 224.80270672 C-26.35460274 225.30647057 -26.85885034 225.81023443 -27.37837816 226.32926385 C-35.58807006 234.53061461 -43.80627215 242.72338329 -52.02794784 250.91271873 C-60.49976843 259.35148848 -68.96405914 267.79775136 -77.42097002 276.25146329 C-82.15763311 280.98596396 -86.89773451 285.71690384 -91.64587021 290.43990231 C-96.09771697 294.86854796 -100.54003969 299.30652583 -104.97514343 303.75193691 C-106.60433374 305.38162417 -108.23696063 307.00788409 -109.87322807 308.63046551 C-112.10333969 310.84295887 -114.32081551 313.06739127 -116.53552055 315.29529095 C-117.18734194 315.93614309 -117.83916333 316.57699523 -118.51073688 317.23726714 C-121.95870448 320.735158 -124.183793 323.46880279 -125.1914196 328.43893719 C-123.27651114 334.61956485 -117.40946918 339.61747769 -112.8789196 344.00143719 C-112.25307976 344.62212078 -111.62723991 345.24280437 -110.98243523 345.88229656 C-107.95074627 348.86423472 -104.86034177 351.72529927 -101.63319206 354.49418926 C-96.86045597 358.66689199 -92.3887695 363.10854349 -87.91724968 367.59958172 C-87.02678444 368.48990093 -86.1363192 369.38022015 -85.21887016 370.29751873 C-82.79948682 372.71661756 -80.38317944 375.13876708 -77.96744943 377.56151342 C-75.42784608 380.10741763 -72.88536297 382.65044282 -70.34319878 385.19378948 C-65.53437935 390.00570602 -60.72811121 394.82016237 -55.92277783 399.63555992 C-50.46824578 405.10126966 -45.01087646 410.56414266 -39.55326045 416.02677274 C-30.22100101 425.36770123 -20.8908532 434.71073348 -11.56309319 444.0561552 C-10.79367897 444.82701458 -10.02426476 445.59787395 -9.23153496 446.3920927 C-8.52927599 447.10336441 -7.82701702 447.81463612 -7.10347748 448.54746151 C-5.93302776 449.70531201 -4.73599555 450.83790844 -3.49760818 451.92278957 C-2.07354546 453.18280315 -2.07354546 453.18280315 -0.1914196 455.43893719 C-0.57378674 458.07994556 -0.57378674 458.07994556 -1.1914196 460.43893719 C-21.96039745 460.4624493 -42.72937306 460.48000529 -63.49836159 460.49074936 C-73.14491283 460.49587384 -82.79145574 460.5028418 -92.43800163 460.51437664 C-100.86019117 460.52444253 -109.28237467 460.53081848 -117.70457006 460.53302568 C-122.15106853 460.5343129 -126.59754973 460.537269 -131.04404259 460.54466724 C-142.0937102 460.56209765 -153.14217672 460.54300742 -164.1914196 460.43893719 C-165.24506675 460.42973255 -165.24506675 460.42973255 -166.31999969 460.42034197 C-170.89054954 460.37699232 -175.45876918 460.29118462 -180.02833366 460.18283367 C-181.14128681 460.16911504 -182.25423996 460.1553964 -183.40091896 460.14126205 C-192.37631996 459.86543173 -199.20867856 457.45510021 -206.2539196 451.81393719 C-207.00802116 451.22354656 -207.76212273 450.63315594 -208.53907585 450.02487469 C-209.08434929 449.50151531 -209.62962273 448.97815594 -210.1914196 448.43893719 C-210.1914196 447.77893719 -210.1914196 447.11893719 -210.1914196 446.43893719 C-211.1814196 446.10893719 -212.1714196 445.77893719 -213.1914196 445.43893719 C-214.90792013 443.65725309 -216.42505559 441.75713716 -217.98438835 439.83737469 C-219.75626441 437.9118315 -221.45798102 436.33540644 -223.44825554 434.66183758 C-230.03946295 428.92742641 -236.12017043 422.65383013 -242.28907585 416.47409344 C-243.65078219 415.11306205 -245.01263682 413.75217903 -246.37463188 412.39143658 C-249.21793879 409.54959763 -252.05944559 406.70597437 -254.89967155 403.86105633 C-258.52287991 400.23215126 -262.15056003 396.60775499 -265.77960873 392.98469162 C-268.58941106 390.17851928 -271.396807 387.36994919 -274.20350266 384.5606699 C-275.5394853 383.22402473 -276.87619854 381.88810935 -278.21368408 380.55296803 C-290.83846324 367.94546887 -290.83846324 367.94546887 -295.89134026 361.9523344 C-297.86773447 359.65165213 -300.05796328 357.59027369 -302.2539196 355.50143719 C-310.58569153 347.25843604 -315.45635305 339.36508021 -316.2070446 327.55612469 C-316.14433594 315.04574655 -307.97797904 306.30654899 -299.88146782 297.56576824 C-299.36448482 297.0071949 -298.84750181 296.44862155 -298.31485265 295.87312174 C-291.58124372 288.65021763 -284.57889595 281.69458557 -277.58814812 274.72214031 C-276.05734928 273.19162426 -274.52677201 271.66088657 -272.99639702 270.12994671 C-268.87930348 266.01256864 -264.75915419 261.89826117 -260.63841176 257.78453541 C-256.31214321 253.46456347 -251.98874983 249.14171595 -247.66503716 244.81918621 C-239.48877147 236.64601743 -231.30996301 228.4753982 -223.13021559 220.30571413 C-213.83132335 211.01801423 -204.53528191 201.7274632 -195.23947823 192.43667221 C-179.35524853 176.56110758 -163.4688993 160.68766654 -147.58018303 144.81659222 C-146.9108831 144.14803188 -146.24158316 143.47947154 -145.55200142 142.7906518 C-144.32264543 141.56266645 -143.09327522 140.33469535 -141.86388689 139.10674238 C-140.30629515 137.55091003 -138.74884602 135.99493504 -137.1914196 134.43893719 C-136.3461112 133.59460031 -135.5008028 132.75026342 -134.629879 131.88034058 C-131.99198646 129.23926327 -129.361511 126.59091238 -126.73318291 123.94032574 C-125.63862755 122.83697475 -124.54405257 121.73364323 -123.44946098 120.63032818 C-122.87039434 120.04660883 -122.29132771 119.46288948 -121.69471359 118.86148167 C-108.35559815 105.41620148 -94.99926545 91.98813473 -81.63310146 78.56974602 C-73.90860329 70.81425202 -66.18986782 63.05317712 -58.48414421 55.27902508 C-51.75326662 48.48840738 -45.01196225 41.70834817 -38.25785011 34.94083673 C-34.68517093 31.3603313 -31.11797503 27.77472098 -27.56324768 24.17638493 C-24.2231712 20.79565639 -20.86936192 17.42919586 -17.50438499 14.07325649 C-16.27123384 12.83845205 -15.04323216 11.59848057 -13.82078934 10.35307407 C-12.15292021 8.65541726 -10.46762903 6.97721278 -8.77663994 5.30263042 C-8.29559526 4.80410869 -7.81455057 4.30558696 -7.31892878 3.79195851 C-4.86361929 1.40066148 -3.43385813 0.47228137 0 0 Z " fill="#FC8412" transform="translate(334.19141960144043,5.561062812805176)"/>
<path d="M0 0 C23.29635619 -0.07014315 46.59269492 -0.1230142 69.88913536 -0.15543652 C80.70656239 -0.17089223 91.52392373 -0.191957 102.34130859 -0.22631836 C111.77193389 -0.25626035 121.20251161 -0.27558442 130.63318312 -0.28226548 C135.6246598 -0.2861696 140.61600035 -0.29531786 145.60743332 -0.31719017 C150.31056044 -0.33763115 155.01349603 -0.34381845 159.71666336 -0.33932304 C161.43790988 -0.34014485 163.15916314 -0.34606499 164.88037109 -0.35761642 C180.97037588 -0.46025628 191.96660913 1.97281673 203.75390625 13.49609375 C205.36457697 15.13559666 206.9673766 16.78286672 208.5625 18.4375 C210.16547453 20.08446253 211.77091477 21.7290291 213.37890625 23.37109375 C214.0757251 24.09224365 214.77254395 24.81339355 215.49047852 25.55639648 C217.45535639 27.46966263 219.4358188 29.24684788 221.51708984 31.02587891 C227.40242318 36.13549153 232.84535242 41.70136711 238.34765625 47.21484375 C239.53000077 48.396513 240.71249357 49.57803391 241.89512634 50.75941467 C244.36180534 53.22462723 246.82668703 55.69161886 249.2902832 58.15991211 C252.42921932 61.30454484 255.57262471 64.44466556 258.71740055 67.58345699 C261.15662006 70.01904232 263.59342741 72.45702989 266.02953911 74.89572334 C267.18689277 76.05373839 268.34497387 77.21102693 269.50383186 78.36753654 C275.02469783 83.87966472 280.51650403 89.37590246 285.552948 95.34306335 C287.66454979 97.76093803 289.97368311 99.95422625 292.29003906 102.17358398 C301.04386759 110.57653591 308.12578187 118.73328782 309.3125 131.3125 C307.80669491 149.08100009 294.49361593 159.877846 282.5 171.625 C280.26274265 173.82692968 278.02776138 176.0311017 275.79553223 178.23812866 C274.41529238 179.60169143 273.03196605 180.96214039 271.64489746 182.3187561 C268.62547807 185.29195989 265.71271853 188.2900747 262.97244263 191.52359009 C258.14710583 197.06553326 252.9262261 202.21374565 247.72802734 207.40136719 C246.60191052 208.52884155 245.47600599 209.65652798 244.35029602 210.78440857 C241.31354136 213.82569409 238.27366599 216.86384178 235.23305464 219.90127087 C232.04283324 223.08894797 228.85506659 226.27907843 225.66690063 229.46881104 C220.31749038 234.82003617 214.96598494 240.1691592 209.61328125 245.51708984 C203.43052559 251.69439585 197.25139177 257.87530722 191.07411039 264.05808711 C185.75942961 269.37730849 180.44279935 274.69457543 175.12453997 280.01021886 C171.95273248 283.18046988 168.78159853 286.35138669 165.61222458 289.52407074 C162.63495813 292.50422994 159.65524814 295.48192436 156.67365074 298.45775032 C155.58156104 299.54852032 154.49031669 300.64013746 153.39999199 301.73267174 C151.90897169 303.22643441 150.41488922 304.71706731 148.92001343 306.20697021 C148.08566458 307.04094204 147.25131573 307.87491386 146.39168358 308.73415756 C144.02612406 310.97525049 141.55801118 312.98419082 139 315 C137.31141558 316.64445681 135.64741147 318.31429807 134 320 C132.86766876 321.13306587 131.7337158 322.26451235 130.59854126 323.39472961 C129.65681313 324.33429001 129.65681313 324.33429001 128.69606018 325.29283142 C128.02372849 325.96359207 127.35139679 326.63435272 126.65869141 327.32543945 C119.30882229 334.65893412 111.96152929 341.99500434 104.61567116 349.33251667 C100.1773973 353.76556953 95.73819262 358.19768196 91.296875 362.62768555 C86.99007315 366.92358965 82.68574811 371.22196133 78.3830986 375.52202415 C76.74861339 377.15466969 75.11325209 378.78643866 73.4769783 380.41729164 C71.18232664 382.70463964 68.89086909 384.99514381 66.60009766 387.28637695 C65.93181442 387.95106491 65.26353119 388.61575287 64.57499695 389.30058289 C60.76012436 393.1237341 57.1500355 397.06529639 53.61971474 401.15206242 C51.40393435 403.68005316 49.0661899 406.06853393 46.69482422 408.45043945 C46.21415497 408.93446732 45.73348572 409.41849518 45.23825073 409.91719055 C43.67964252 411.48514742 42.11743476 413.04945042 40.5546875 414.61328125 C39.45558708 415.71560214 38.35655885 416.81799502 37.25759888 417.92045593 C34.96825543 420.21574787 32.67689487 422.50900395 30.38427734 424.80102539 C27.45282814 427.73237244 24.52835259 430.67057348 21.60554314 433.61053181 C19.34412561 435.88307673 17.07816866 438.15105316 14.8109169 440.41777611 C13.73047169 441.49939748 12.65163862 442.58263182 11.57448959 443.66753578 C10.06984408 445.18200953 8.55895738 446.68998013 7.04638672 448.1965332 C6.19035858 449.05398636 5.33433044 449.91143951 4.45236206 450.7948761 C-0.01492185 454.81178481 -3.55218769 456.76101785 -9.55281544 456.44422722 C-16.85930057 455.11791141 -22.99797082 447.28550992 -28.02075195 442.22216797 C-28.77787979 441.46693848 -29.53500763 440.71170898 -30.31507874 439.93359375 C-32.79437979 437.45797099 -35.26645173 434.97526856 -37.73828125 432.4921875 C-39.46807443 430.76120103 -41.19823874 429.03058536 -42.92875671 427.30032349 C-46.54358534 423.68393523 -50.15504282 420.06422569 -53.76391602 416.44189453 C-58.39020709 411.79856991 -63.0230981 407.16189971 -67.65829182 402.52746391 C-71.22645485 398.95902911 -74.79200697 395.3879953 -78.35667992 391.81607437 C-80.06452779 390.10504524 -81.77298119 388.39462029 -83.48204994 386.68481064 C-85.86596803 384.29872579 -88.24656531 381.90937807 -90.6262207 379.51904297 C-91.33222412 378.81349274 -92.03822754 378.1079425 -92.765625 377.38101196 C-93.73892509 376.40131439 -93.73892509 376.40131439 -94.73188782 375.40182495 C-95.29393071 374.83810621 -95.85597361 374.27438747 -96.4350481 373.69358635 C-100.70020056 369.07785088 -101.76963156 366.18026074 -101.56901741 359.85477257 C-100.52804065 354.63216978 -97.15984979 351.72732365 -93.40014648 348.16723633 C-92.59209061 347.35918045 -91.78403473 346.55112457 -90.95149231 345.71858215 C-88.28312058 343.06293485 -85.57807014 340.44826731 -82.87109375 337.83203125 C-81.00209506 335.98611198 -79.13559831 334.13765635 -77.27149963 332.28678894 C-72.86371709 327.91827896 -68.42911906 323.57811135 -63.98365504 319.24798745 C-58.45805124 313.86335067 -52.96564675 308.44523671 -47.47460938 303.02539062 C-41.85981319 297.48377741 -36.24266323 291.94483292 -30.60020447 286.43135071 C-29.73931213 285.58851532 -28.8784198 284.74567993 -27.99143982 283.87730408 C-26.39719576 282.31711524 -24.80080104 280.75911921 -23.20169067 279.20391846 C-19.13487231 275.21953696 -15.27023798 271.14156912 -11.57533264 266.80886459 C-8.80225815 263.62470137 -5.80577094 260.66314884 -2.81640625 257.68359375 C-2.15720688 257.02343765 -1.49800751 256.36328156 -0.8188324 255.68312073 C0.56396835 254.29964494 1.94801076 252.91740917 3.33325195 251.53637695 C5.43230343 249.44268331 7.5259594 247.34370126 9.61914062 245.24414062 C10.97363786 243.89030429 12.32844531 242.53677825 13.68359375 241.18359375 C14.29843124 240.56673203 14.91326874 239.9498703 15.54673767 239.3143158 C18.500115 236.37652068 21.49488313 233.54330469 24.66227722 230.83673096 C29.31725521 226.77985122 33.68281883 222.46491577 38.04638672 218.09887695 C38.91241013 217.23621216 39.77843353 216.37354736 40.67070007 215.48474121 C43.02140429 213.14185205 45.36985827 210.79675692 47.7169776 208.45027947 C49.18587365 206.98209811 50.65548109 205.51463265 52.12533951 204.04741478 C57.25892939 198.92304106 62.38996603 193.796127 67.51855469 188.66674805 C72.2924307 183.89226918 77.07188099 179.12342069 81.85392368 174.35712272 C85.97060294 170.25351359 90.08342317 166.14606383 94.19325268 162.03559464 C96.64339646 159.58519613 99.09506194 157.13636951 101.55062485 154.69140053 C104.28267388 151.97082147 107.00668282 149.24228001 109.72998047 146.51293945 C110.54243729 145.70610214 111.3548941 144.89926483 112.19197083 144.06797791 C112.93201859 143.32373566 113.67206635 142.57949341 114.43453979 141.81269836 C115.07862226 141.16916066 115.72270473 140.52562296 116.38630486 139.86258411 C119.11712729 136.7105721 120.01707067 134.81837576 119.92926025 130.60870361 C118.81429008 126.27881124 117.23968539 124.44598663 114.13183594 121.26074219 C113.63915096 120.74836376 113.14646599 120.23598534 112.63885117 119.70808029 C111.10725312 118.12353359 109.55589283 116.56065929 108 115 C107.09060669 114.07110962 106.18121338 113.14221924 105.2442627 112.18518066 C102.95850045 109.86671885 100.65900813 107.56352817 98.34671783 105.27155304 C96.83754944 103.77551108 95.33184668 102.27604912 93.82684326 100.77581787 C90.63743447 97.59765191 87.44403393 94.4235168 84.25 91.25 C80.52688119 87.55068183 76.8055268 83.84962095 73.08837128 80.14431 C71.61993318 78.68225154 70.14847286 77.22328558 68.67681885 75.76446533 C64.09131383 71.19569834 59.65007107 66.57856563 55.43676758 61.66384888 C53.70225701 59.65519869 51.87665433 57.76260045 49.9921875 55.89453125 C49.31542969 55.22099609 48.63867188 54.54746094 47.94140625 53.85351562 C47.25949219 53.17998047 46.57757813 52.50644531 45.875 51.8125 C45.18535156 51.12736328 44.49570312 50.44222656 43.78515625 49.73632812 C41.05665137 47.02608284 38.32713538 44.31819438 35.5703125 41.63671875 C33.30237572 39.31018786 31.15799132 36.926532 29.0078125 34.4921875 C25.35046936 30.40099943 21.54772647 26.51959345 17.6171875 22.6953125 C17.06750305 22.15823669 16.5178186 21.62116089 15.95147705 21.06781006 C13.67851648 18.84891839 11.40390585 16.63223419 9.11132812 14.43359375 C7.41442102 12.80289818 5.73356094 11.15704072 4.0546875 9.5078125 C3.53091522 9.0129837 3.00714294 8.51815491 2.46749878 8.0083313 C1.03857422 6.59033203 1.03857422 6.59033203 -1 4 C-0.62741089 1.83810425 -0.62741089 1.83810425 0 0 Z " fill="#258BFA" transform="translate(343,202)"/>
<path d="M0 0 C3.94086057 0.61589487 5.54860677 2.78105675 7.95970345 5.72214031 C9.01456474 6.93260561 10.07434153 8.13879831 11.13801765 9.34152508 C11.72017918 10.00173656 12.3023407 10.66194805 12.90214348 11.34216595 C16.42533882 15.21710908 20.16880914 18.87078559 23.89769173 22.54635906 C24.72699039 23.36633625 25.55628904 24.18631344 26.41071796 25.03113842 C28.16101302 26.76071042 29.91225317 28.48932645 31.66436386 30.21705914 C35.88947558 34.38696774 40.10144737 38.57011361 44.31508386 42.7516098 C50.75251821 49.13932962 57.19465523 55.52214497 63.65452766 61.88717937 C68.51232908 66.67378069 73.35436965 71.47588587 78.18743134 76.28746319 C80.02775212 78.11417207 81.87348301 79.93544701 83.72463608 81.75117779 C86.2975344 84.27609357 88.85142927 86.81883066 91.40159798 89.36667156 C92.17180275 90.11373363 92.94200752 90.86079571 93.73555183 91.63049603 C94.42362419 92.32537121 95.11169655 93.02024639 95.82061958 93.7361784 C96.72779087 94.63310532 96.72779087 94.63310532 97.65328884 95.54815197 C98.8085804 97.43893719 98.8085804 97.43893719 98.65237141 99.98493481 C97.3769917 103.69412916 94.74220665 105.99601 91.9804554 108.65768719 C91.3944355 109.23804729 90.8084156 109.8184074 90.20463753 110.41635418 C88.33181987 112.26683862 86.44560442 114.10295286 84.5585804 115.93893719 C83.30375726 117.17368316 82.04984065 118.40935113 80.79686165 119.64596844 C78.01562811 122.38802448 75.22587635 125.12106408 72.42814827 127.84628582 C71.17105235 129.08248936 69.92727801 130.33224635 68.68904781 131.58734608 C65.92846197 134.34926156 63.08068477 137.01188381 60.22544485 139.67536318 C50.3295936 148.90853815 40.69876349 158.38770766 31.12132454 167.94919109 C29.42767766 169.63655176 27.73384992 171.32373091 26.03985786 173.01074505 C20.55434407 178.47551857 15.07389293 183.94535448 9.59373665 189.41549969 C8.17250323 190.83376366 6.75120334 192.25196098 5.3298903 193.67014516 C-3.0363151 202.01794739 -11.40119758 210.36707263 -19.76207447 218.72021198 C-21.79149158 220.74772002 -23.8209144 222.77522234 -25.85035515 224.80270672 C-26.35460274 225.30647057 -26.85885034 225.81023443 -27.37837816 226.32926385 C-35.58807006 234.53061461 -43.80627215 242.72338329 -52.02794784 250.91271873 C-60.49976843 259.35148848 -68.96405914 267.79775136 -77.42097002 276.25146329 C-82.15763311 280.98596396 -86.89773451 285.71690384 -91.64587021 290.43990231 C-96.09771697 294.86854796 -100.54003969 299.30652583 -104.97514343 303.75193691 C-106.60433374 305.38162417 -108.23696063 307.00788409 -109.87322807 308.63046551 C-112.10333969 310.84295887 -114.32081551 313.06739127 -116.53552055 315.29529095 C-117.18734194 315.93614309 -117.83916333 316.57699523 -118.51073688 317.23726714 C-121.95870448 320.735158 -124.183793 323.46880279 -125.1914196 328.43893719 C-123.27651114 334.61956485 -117.40946918 339.61747769 -112.8789196 344.00143719 C-112.25307976 344.62212078 -111.62723991 345.24280437 -110.98243523 345.88229656 C-107.95074627 348.86423472 -104.86034177 351.72529927 -101.63319206 354.49418926 C-96.86045597 358.66689199 -92.3887695 363.10854349 -87.91724968 367.59958172 C-87.02678444 368.48990093 -86.1363192 369.38022015 -85.21887016 370.29751873 C-82.79948682 372.71661756 -80.38317944 375.13876708 -77.96744943 377.56151342 C-75.42784608 380.10741763 -72.88536297 382.65044282 -70.34319878 385.19378948 C-65.53437935 390.00570602 -60.72811121 394.82016237 -55.92277783 399.63555992 C-50.46824578 405.10126966 -45.01087646 410.56414266 -39.55326045 416.02677274 C-30.22100101 425.36770123 -20.8908532 434.71073348 -11.56309319 444.0561552 C-10.79367897 444.82701458 -10.02426476 445.59787395 -9.23153496 446.3920927 C-8.52927599 447.10336441 -7.82701702 447.81463612 -7.10347748 448.54746151 C-5.93302776 449.70531201 -4.73599555 450.83790844 -3.49760818 451.92278957 C-2.07354546 453.18280315 -2.07354546 453.18280315 -0.1914196 455.43893719 C-0.57378674 458.07994556 -0.57378674 458.07994556 -1.1914196 460.43893719 C-21.96039745 460.4624493 -42.72937306 460.48000529 -63.49836159 460.49074936 C-73.14491283 460.49587384 -82.79145574 460.5028418 -92.43800163 460.51437664 C-100.86019117 460.52444253 -109.28237467 460.53081848 -117.70457006 460.53302568 C-122.15106853 460.5343129 -126.59754973 460.537269 -131.04404259 460.54466724 C-142.0937102 460.56209765 -153.14217672 460.54300742 -164.1914196 460.43893719 C-165.24506675 460.42973255 -165.24506675 460.42973255 -166.31999969 460.42034197 C-170.89054954 460.37699232 -175.45876918 460.29118462 -180.02833366 460.18283367 C-181.14128681 460.16911504 -182.25423996 460.1553964 -183.40091896 460.14126205 C-192.37631996 459.86543173 -199.20867856 457.45510021 -206.2539196 451.81393719 C-207.00802116 451.22354656 -207.76212273 450.63315594 -208.53907585 450.02487469 C-209.08434929 449.50151531 -209.62962273 448.97815594 -210.1914196 448.43893719 C-210.1914196 447.77893719 -210.1914196 447.11893719 -210.1914196 446.43893719 C-211.1814196 446.10893719 -212.1714196 445.77893719 -213.1914196 445.43893719 C-214.90792013 443.65725309 -216.42505559 441.75713716 -217.98438835 439.83737469 C-219.75626441 437.9118315 -221.45798102 436.33540644 -223.44825554 434.66183758 C-230.03946295 428.92742641 -236.12017043 422.65383013 -242.28907585 416.47409344 C-243.65078219 415.11306205 -245.01263682 413.75217903 -246.37463188 412.39143658 C-249.21793879 409.54959763 -252.05944559 406.70597437 -254.89967155 403.86105633 C-258.52287991 400.23215126 -262.15056003 396.60775499 -265.77960873 392.98469162 C-268.58941106 390.17851928 -271.396807 387.36994919 -274.20350266 384.5606699 C-275.5394853 383.22402473 -276.87619854 381.88810935 -278.21368408 380.55296803 C-290.83846324 367.94546887 -290.83846324 367.94546887 -295.89134026 361.9523344 C-297.86773447 359.65165213 -300.05796328 357.59027369 -302.2539196 355.50143719 C-310.58569153 347.25843604 -315.45635305 339.36508021 -316.2070446 327.55612469 C-316.14433594 315.04574655 -307.97797904 306.30654899 -299.88146782 297.56576824 C-299.36448482 297.0071949 -298.84750181 296.44862155 -298.31485265 295.87312174 C-291.58124372 288.65021763 -284.57889595 281.69458557 -277.58814812 274.72214031 C-276.05734928 273.19162426 -274.52677201 271.66088657 -272.99639702 270.12994671 C-268.87930348 266.01256864 -264.75915419 261.89826117 -260.63841176 257.78453541 C-256.31214321 253.46456347 -251.98874983 249.14171595 -247.66503716 244.81918621 C-239.48877147 236.64601743 -231.30996301 228.4753982 -223.13021559 220.30571413 C-213.83132335 211.01801423 -204.53528191 201.7274632 -195.23947823 192.43667221 C-179.35524853 176.56110758 -163.4688993 160.68766654 -147.58018303 144.81659222 C-146.9108831 144.14803188 -146.24158316 143.47947154 -145.55200142 142.7906518 C-144.32264543 141.56266645 -143.09327522 140.33469535 -141.86388689 139.10674238 C-140.30629515 137.55091003 -138.74884602 135.99493504 -137.1914196 134.43893719 C-136.3461112 133.59460031 -135.5008028 132.75026342 -134.629879 131.88034058 C-131.99198646 129.23926327 -129.361511 126.59091238 -126.73318291 123.94032574 C-125.63862755 122.83697475 -124.54405257 121.73364323 -123.44946098 120.63032818 C-122.87039434 120.04660883 -122.29132771 119.46288948 -121.69471359 118.86148167 C-108.35559815 105.41620148 -94.99926545 91.98813473 -81.63310146 78.56974602 C-73.90860329 70.81425202 -66.18986782 63.05317712 -58.48414421 55.27902508 C-51.75326662 48.48840738 -45.01196225 41.70834817 -38.25785011 34.94083673 C-34.68517093 31.3603313 -31.11797503 27.77472098 -27.56324768 24.17638493 C-24.2231712 20.79565639 -20.86936192 17.42919586 -17.50438499 14.07325649 C-16.27123384 12.83845205 -15.04323216 11.59848057 -13.82078934 10.35307407 C-12.15292021 8.65541726 -10.46762903 6.97721278 -8.77663994 5.30263042 C-8.29559526 4.80410869 -7.81455057 4.30558696 -7.31892878 3.79195851 C-4.86361929 1.40066148 -3.43385813 0.47228137 0 0 Z M-2.88599491 2.88462353 C-3.56824792 3.5674213 -4.25050093 4.25021908 -4.95342827 4.9537077 C-5.73699196 5.7330769 -6.52055565 6.5124461 -7.32786369 7.31543255 C-8.18864525 8.18183361 -9.0494268 9.04823467 -9.93629265 9.94089031 C-10.84217628 10.8448756 -11.74805992 11.74886089 -12.68139458 12.68023968 C-15.17387679 15.16785953 -17.66003801 17.66171124 -20.1450212 20.15681934 C-22.74898744 22.76956068 -25.35821583 25.37703701 -27.96676445 27.98520184 C-32.35422977 32.37360516 -36.73779886 36.76587024 -41.11890984 41.16061687 C-46.16989381 46.22726422 -51.22602203 51.2887294 -56.28521127 56.34718275 C-61.68055005 61.74184292 -67.07205923 67.14031823 -72.46247697 72.53989506 C-74.00913816 74.08867808 -75.55650004 75.63675805 -77.10402298 77.18467999 C-80.00554714 80.0874065 -82.90277195 82.9943887 -85.7995739 85.90182781 C-86.6502343 86.75203503 -87.5008947 87.60224224 -88.37733269 88.47821331 C-91.89414364 92.01382813 -95.346031 95.55693879 -98.59388542 99.34239483 C-103.17526489 104.66077966 -108.17831654 109.56565995 -113.14381218 114.5207243 C-114.23538816 115.61365789 -115.32675186 116.70680353 -116.41792107 117.80014324 C-119.35943739 120.74618784 -122.30407079 123.68909769 -125.24944329 126.63128638 C-128.33696708 129.71626652 -131.42203693 132.80369917 -134.50750542 135.89073467 C-139.68119075 141.06623422 -144.85697005 146.23963263 -150.0339489 151.41183758 C-156.02250001 157.39493023 -162.00741692 163.38164009 -167.99049264 169.37020773 C-173.13358242 174.5178294 -178.27861062 179.66350753 -183.42527694 184.80755335 C-186.49694515 187.87766144 -189.56793092 190.94844396 -192.63716888 194.02098179 C-195.51675999 196.90345328 -198.39877048 199.78348332 -201.28269768 202.66161633 C-202.34218691 203.71977961 -203.40081925 204.77880164 -204.45854568 205.838727 C-205.89806644 207.28096522 -207.34095096 208.71984373 -208.78402519 210.15852642 C-209.59164205 210.96576625 -210.3992589 211.77300608 -211.23134899 212.60470772 C-213.1914196 214.43893719 -213.1914196 214.43893719 -215.1914196 215.43893719 C-215.1914196 216.09893719 -215.1914196 216.75893719 -215.1914196 217.43893719 C-215.8514196 217.43893719 -216.5114196 217.43893719 -217.1914196 217.43893719 C-218.90212805 219.06036624 -220.56197649 220.73586035 -222.1914196 222.43893719 C-222.99321648 223.2291325 -223.79501335 224.01932781 -224.6211071 224.83346844 C-225.42806023 225.63139812 -226.23501335 226.42932781 -227.0664196 227.25143719 C-227.86821648 228.0416325 -228.67001335 228.83182781 -229.4961071 229.64596844 C-231.41715009 231.63661443 -233.18485784 233.60558287 -234.95973015 235.71383953 C-240.18474555 241.7010802 -245.89237041 247.21684588 -251.53954697 252.80109882 C-253.63319646 254.87248217 -255.72264986 256.94801448 -257.8109417 259.02479839 C-263.74394441 264.92444102 -269.6810627 270.81989016 -275.62867546 276.70480633 C-279.28079302 280.31901619 -282.92533774 283.94072058 -286.56532288 287.56714725 C-287.94306283 288.9369017 -289.32355978 290.30388948 -290.70699692 291.6678896 C-306.99974472 306.75936797 -306.99974472 306.75936797 -313.6914196 327.00143719 C-313.37069714 345.05622529 -298.01080811 356.77491081 -286.0664196 368.56393719 C-274.47812697 380.00251948 -274.47812697 380.00251948 -270.85157585 384.27096844 C-265.8087067 390.17563226 -260.20859627 395.57006289 -254.71265984 401.04806805 C-252.75846337 402.99690588 -250.80966813 404.95102991 -248.86134148 406.90573406 C-243.4798012 412.28981134 -238.11836742 417.60133713 -232.31324577 422.5309782 C-229.33622463 425.2079337 -226.53182439 428.04436998 -223.7148571 430.88815594 C-223.13588173 431.47262997 -222.55690636 432.057104 -221.96038628 432.65928936 C-219.54973275 435.09768415 -217.14271087 437.53959085 -214.74024773 439.98605633 C-212.96541134 441.7912216 -211.18429732 443.59000657 -209.4023571 445.38815594 C-208.86782921 445.93614346 -208.33330132 446.48413097 -207.78257561 447.04872417 C-199.99344608 454.88902673 -192.38320678 457.66851414 -181.41309929 457.85080242 C-180.27343082 457.87966754 -180.27343082 457.87966754 -179.11073875 457.90911579 C-176.52836838 457.97014076 -173.94600521 458.01584324 -171.3632946 458.06003094 C-170.43894363 458.07859079 -169.51459267 458.09715065 -168.56223106 458.11627293 C-138.34362661 458.71768542 -108.11020919 458.55284732 -77.88721609 458.5109657 C-69.49950753 458.49954208 -61.11179789 458.49422842 -52.72408342 458.48926079 C-35.54651981 458.47895894 -18.36897141 458.4615065 -1.1914196 458.43893719 C-5.64798404 453.10368497 -10.35210772 448.13525822 -15.27296257 443.22799969 C-16.06078117 442.43842876 -16.84859978 441.64885784 -17.66029167 440.83536053 C-20.24889795 438.24237581 -22.84111823 435.65303961 -25.4336071 433.06393719 C-27.24447301 431.25239702 -29.0551905 429.44070849 -30.86576653 427.62887859 C-34.65514849 423.83802502 -38.44627775 420.04893096 -42.23878288 416.26120281 C-46.60543789 411.89998497 -50.96848441 407.53518203 -55.32966697 403.16849232 C-59.54653024 398.94652004 -63.76623028 394.72739172 -67.98710823 390.50943279 C-69.77311936 388.72408617 -71.55839508 386.93800352 -73.34290504 385.15115643 C-75.84321251 382.64829335 -78.34673109 380.14868548 -80.85108757 377.64987469 C-81.57965965 376.91927837 -82.30823174 376.18868206 -83.05888176 375.43594646 C-87.04583035 371.46523752 -91.12414582 367.66487019 -95.39803505 364.00393486 C-98.39820338 361.38583689 -101.20996337 358.58281206 -104.0273571 355.77096844 C-104.63278343 355.16887051 -105.23820976 354.56677258 -105.86198235 353.94642925 C-107.12527234 352.68815223 -108.38725766 351.42856403 -109.64796257 350.16769695 C-111.57762935 348.24024027 -113.51519268 346.32095611 -115.45313835 344.40182781 C-116.68669944 343.17119716 -117.91978955 341.94009418 -119.1523571 340.70846844 C-119.72940392 340.13860714 -120.30645073 339.56874584 -120.90098381 338.98161602 C-124.50019004 335.36169664 -126.73278198 332.68116556 -127.7539196 327.68893719 C-126.44971378 320.15352579 -117.77163367 313.87491314 -112.49404716 308.61458111 C-111.75050419 307.86947814 -111.00696121 307.12437517 -110.24088663 306.35669333 C-107.76850825 303.88035159 -105.29260133 301.40756951 -102.81666374 298.9347868 C-101.03532368 297.15209063 -99.25419619 295.36918202 -97.47326469 293.58607769 C-93.14940716 289.25814253 -88.8232242 284.93254417 -84.49587495 280.60810059 C-80.97691735 277.09140744 -77.4589444 273.57373209 -73.94166183 270.05536366 C-73.18887554 269.30234751 -73.18887554 269.30234751 -72.42088143 268.53411891 C-71.40116179 267.51407953 -70.38144439 266.49403791 -69.3617292 265.47399408 C-59.81453967 255.92395751 -50.26429547 246.37698042 -40.71299266 236.83105791 C-32.52934138 228.65187396 -24.34831539 220.47007182 -16.1692028 212.2863493 C-6.65589407 202.7676811 2.85904501 193.25064745 12.37656695 183.73619181 C13.39271567 182.72036161 14.40886232 181.70452933 15.42500687 180.68869495 C15.92488432 180.18897177 16.42476178 179.68924859 16.93978704 179.17438228 C20.45112651 175.66390385 23.9613092 172.15227132 27.47103882 168.64018345 C32.20056205 163.90755204 36.93274855 159.17759931 41.6667099 154.44940662 C43.40094968 152.71648609 45.13434463 150.98271959 46.86681938 149.24803448 C49.23697636 146.87513314 51.61021132 144.50535225 53.98422432 142.13630962 C55.00433685 141.11285101 55.00433685 141.11285101 56.04505771 140.06871647 C59.90399728 136.22536442 63.86747988 132.56403666 68.00292116 129.01922423 C70.96474099 126.42708204 73.72713884 123.6440522 76.4960804 120.84909344 C77.08405403 120.25970486 77.67202766 119.67031628 78.27781868 119.06306744 C80.12380401 117.21156101 81.96624932 115.35657902 83.8085804 113.50143719 C85.0726689 112.23232345 86.33698996 110.9634413 87.60154915 109.69479656 C90.67324764 106.61217399 93.74178048 103.52643291 96.8085804 100.43893719 C95.36800636 97.14210405 93.58691146 94.97178381 91.04416084 92.44073772 C90.26034035 91.65561306 89.47651985 90.8704884 88.66894722 90.06157207 C87.80809013 89.20947659 86.94723305 88.3573811 86.06028938 87.47946453 C85.15452156 86.57501095 84.24875374 85.67055737 83.31553841 84.7386961 C81.34808154 82.77416931 79.37751347 80.8128371 77.40446472 78.85392666 C74.28631826 75.75805627 71.17528454 72.655104 68.06518745 69.55115032 C63.14740931 64.64474749 58.22497953 59.74304217 53.30050284 54.8433634 C44.47533672 46.06255679 35.65577724 37.27612724 26.84139305 28.48449767 C23.74666313 25.39818803 20.64914716 22.31470954 17.54938114 19.23345828 C16.08765541 17.77980026 14.62704534 16.32503227 13.1669178 14.8697691 C11.3840969 13.09299579 9.59944652 11.31805567 7.81268501 9.54524517 C7.03168434 8.76576015 6.25068367 7.98627514 5.44601631 7.18316936 C4.42257449 6.16500669 4.42257449 6.16500669 3.37845707 5.12627506 C1.8085804 3.43893719 1.8085804 3.43893719 0.8085804 1.43893719 C-1.30907538 1.22259451 -1.30907538 1.22259451 -2.88599491 2.88462353 Z " fill="#FEF9F4" transform="translate(334.19141960144043,5.561062812805176)"/>
<path d="M0 0 C23.29635619 -0.07014315 46.59269492 -0.1230142 69.88913536 -0.15543652 C80.70656239 -0.17089223 91.52392373 -0.191957 102.34130859 -0.22631836 C111.77193389 -0.25626035 121.20251161 -0.27558442 130.63318312 -0.28226548 C135.6246598 -0.2861696 140.61600035 -0.29531786 145.60743332 -0.31719017 C150.31056044 -0.33763115 155.01349603 -0.34381845 159.71666336 -0.33932304 C161.43790988 -0.34014485 163.15916314 -0.34606499 164.88037109 -0.35761642 C180.97037588 -0.46025628 191.96660913 1.97281673 203.75390625 13.49609375 C205.36457697 15.13559666 206.9673766 16.78286672 208.5625 18.4375 C210.16547453 20.08446253 211.77091477 21.7290291 213.37890625 23.37109375 C214.0757251 24.09224365 214.77254395 24.81339355 215.49047852 25.55639648 C217.45535639 27.46966263 219.4358188 29.24684788 221.51708984 31.02587891 C227.40242318 36.13549153 232.84535242 41.70136711 238.34765625 47.21484375 C239.53000077 48.396513 240.71249357 49.57803391 241.89512634 50.75941467 C244.36180534 53.22462723 246.82668703 55.69161886 249.2902832 58.15991211 C252.42921932 61.30454484 255.57262471 64.44466556 258.71740055 67.58345699 C261.15662006 70.01904232 263.59342741 72.45702989 266.02953911 74.89572334 C267.18689277 76.05373839 268.34497387 77.21102693 269.50383186 78.36753654 C275.02469783 83.87966472 280.51650403 89.37590246 285.552948 95.34306335 C287.66454979 97.76093803 289.97368311 99.95422625 292.29003906 102.17358398 C301.04386759 110.57653591 308.12578187 118.73328782 309.3125 131.3125 C307.80669491 149.08100009 294.49361593 159.877846 282.5 171.625 C280.26274265 173.82692968 278.02776138 176.0311017 275.79553223 178.23812866 C274.41529238 179.60169143 273.03196605 180.96214039 271.64489746 182.3187561 C268.62547807 185.29195989 265.71271853 188.2900747 262.97244263 191.52359009 C258.14710583 197.06553326 252.9262261 202.21374565 247.72802734 207.40136719 C246.60191052 208.52884155 245.47600599 209.65652798 244.35029602 210.78440857 C241.31354136 213.82569409 238.27366599 216.86384178 235.23305464 219.90127087 C232.04283324 223.08894797 228.85506659 226.27907843 225.66690063 229.46881104 C220.31749038 234.82003617 214.96598494 240.1691592 209.61328125 245.51708984 C203.43052559 251.69439585 197.25139177 257.87530722 191.07411039 264.05808711 C185.75942961 269.37730849 180.44279935 274.69457543 175.12453997 280.01021886 C171.95273248 283.18046988 168.78159853 286.35138669 165.61222458 289.52407074 C162.63495813 292.50422994 159.65524814 295.48192436 156.67365074 298.45775032 C155.58156104 299.54852032 154.49031669 300.64013746 153.39999199 301.73267174 C151.90897169 303.22643441 150.41488922 304.71706731 148.92001343 306.20697021 C148.08566458 307.04094204 147.25131573 307.87491386 146.39168358 308.73415756 C144.02612406 310.97525049 141.55801118 312.98419082 139 315 C137.31141558 316.64445681 135.64741147 318.31429807 134 320 C132.86766876 321.13306587 131.7337158 322.26451235 130.59854126 323.39472961 C129.65681313 324.33429001 129.65681313 324.33429001 128.69606018 325.29283142 C128.02372849 325.96359207 127.35139679 326.63435272 126.65869141 327.32543945 C119.30882229 334.65893412 111.96152929 341.99500434 104.61567116 349.33251667 C100.1773973 353.76556953 95.73819262 358.19768196 91.296875 362.62768555 C86.99007315 366.92358965 82.68574811 371.22196133 78.3830986 375.52202415 C76.74861339 377.15466969 75.11325209 378.78643866 73.4769783 380.41729164 C71.18232664 382.70463964 68.89086909 384.99514381 66.60009766 387.28637695 C65.93181442 387.95106491 65.26353119 388.61575287 64.57499695 389.30058289 C60.76012436 393.1237341 57.1500355 397.06529639 53.61971474 401.15206242 C51.40393435 403.68005316 49.0661899 406.06853393 46.69482422 408.45043945 C46.21415497 408.93446732 45.73348572 409.41849518 45.23825073 409.91719055 C43.67964252 411.48514742 42.11743476 413.04945042 40.5546875 414.61328125 C39.45558708 415.71560214 38.35655885 416.81799502 37.25759888 417.92045593 C34.96825543 420.21574787 32.67689487 422.50900395 30.38427734 424.80102539 C27.45282814 427.73237244 24.52835259 430.67057348 21.60554314 433.61053181 C19.34412561 435.88307673 17.07816866 438.15105316 14.8109169 440.41777611 C13.73047169 441.49939748 12.65163862 442.58263182 11.57448959 443.66753578 C10.06984408 445.18200953 8.55895738 446.68998013 7.04638672 448.1965332 C6.19035858 449.05398636 5.33433044 449.91143951 4.45236206 450.7948761 C-0.01492185 454.81178481 -3.55218769 456.76101785 -9.55281544 456.44422722 C-16.85930057 455.11791141 -22.99797082 447.28550992 -28.02075195 442.22216797 C-28.77787979 441.46693848 -29.53500763 440.71170898 -30.31507874 439.93359375 C-32.79437979 437.45797099 -35.26645173 434.97526856 -37.73828125 432.4921875 C-39.46807443 430.76120103 -41.19823874 429.03058536 -42.92875671 427.30032349 C-46.54358534 423.68393523 -50.15504282 420.06422569 -53.76391602 416.44189453 C-58.39020709 411.79856991 -63.0230981 407.16189971 -67.65829182 402.52746391 C-71.22645485 398.95902911 -74.79200697 395.3879953 -78.35667992 391.81607437 C-80.06452779 390.10504524 -81.77298119 388.39462029 -83.48204994 386.68481064 C-85.86596803 384.29872579 -88.24656531 381.90937807 -90.6262207 379.51904297 C-91.33222412 378.81349274 -92.03822754 378.1079425 -92.765625 377.38101196 C-93.73892509 376.40131439 -93.73892509 376.40131439 -94.73188782 375.40182495 C-95.29393071 374.83810621 -95.85597361 374.27438747 -96.4350481 373.69358635 C-100.70020056 369.07785088 -101.76963156 366.18026074 -101.56901741 359.85477257 C-100.52804065 354.63216978 -97.15984979 351.72732365 -93.40014648 348.16723633 C-92.59209061 347.35918045 -91.78403473 346.55112457 -90.95149231 345.71858215 C-88.28312058 343.06293485 -85.57807014 340.44826731 -82.87109375 337.83203125 C-81.00209506 335.98611198 -79.13559831 334.13765635 -77.27149963 332.28678894 C-72.86371709 327.91827896 -68.42911906 323.57811135 -63.98365504 319.24798745 C-58.45805124 313.86335067 -52.96564675 308.44523671 -47.47460938 303.02539062 C-41.85981319 297.48377741 -36.24266323 291.94483292 -30.60020447 286.43135071 C-29.73931213 285.58851532 -28.8784198 284.74567993 -27.99143982 283.87730408 C-26.39719576 282.31711524 -24.80080104 280.75911921 -23.20169067 279.20391846 C-19.13487231 275.21953696 -15.27023798 271.14156912 -11.57533264 266.80886459 C-8.80225815 263.62470137 -5.80577094 260.66314884 -2.81640625 257.68359375 C-2.15720688 257.02343765 -1.49800751 256.36328156 -0.8188324 255.68312073 C0.56396835 254.29964494 1.94801076 252.91740917 3.33325195 251.53637695 C5.43230343 249.44268331 7.5259594 247.34370126 9.61914062 245.24414062 C10.97363786 243.89030429 12.32844531 242.53677825 13.68359375 241.18359375 C14.29843124 240.56673203 14.91326874 239.9498703 15.54673767 239.3143158 C18.500115 236.37652068 21.49488313 233.54330469 24.66227722 230.83673096 C29.31725521 226.77985122 33.68281883 222.46491577 38.04638672 218.09887695 C38.91241013 217.23621216 39.77843353 216.37354736 40.67070007 215.48474121 C43.02140429 213.14185205 45.36985827 210.79675692 47.7169776 208.45027947 C49.18587365 206.98209811 50.65548109 205.51463265 52.12533951 204.04741478 C57.25892939 198.92304106 62.38996603 193.796127 67.51855469 188.66674805 C72.2924307 183.89226918 77.07188099 179.12342069 81.85392368 174.35712272 C85.97060294 170.25351359 90.08342317 166.14606383 94.19325268 162.03559464 C96.64339646 159.58519613 99.09506194 157.13636951 101.55062485 154.69140053 C104.28267388 151.97082147 107.00668282 149.24228001 109.72998047 146.51293945 C110.54243729 145.70610214 111.3548941 144.89926483 112.19197083 144.06797791 C112.93201859 143.32373566 113.67206635 142.57949341 114.43453979 141.81269836 C115.07862226 141.16916066 115.72270473 140.52562296 116.38630486 139.86258411 C119.11712729 136.7105721 120.01707067 134.81837576 119.92926025 130.60870361 C118.81429008 126.27881124 117.23968539 124.44598663 114.13183594 121.26074219 C113.63915096 120.74836376 113.14646599 120.23598534 112.63885117 119.70808029 C111.10725312 118.12353359 109.55589283 116.56065929 108 115 C107.09060669 114.07110962 106.18121338 113.14221924 105.2442627 112.18518066 C102.95850045 109.86671885 100.65900813 107.56352817 98.34671783 105.27155304 C96.83754944 103.77551108 95.33184668 102.27604912 93.82684326 100.77581787 C90.63743447 97.59765191 87.44403393 94.4235168 84.25 91.25 C80.52688119 87.55068183 76.8055268 83.84962095 73.08837128 80.14431 C71.61993318 78.68225154 70.14847286 77.22328558 68.67681885 75.76446533 C64.09131383 71.19569834 59.65007107 66.57856563 55.43676758 61.66384888 C53.70225701 59.65519869 51.87665433 57.76260045 49.9921875 55.89453125 C49.31542969 55.22099609 48.63867188 54.54746094 47.94140625 53.85351562 C47.25949219 53.17998047 46.57757813 52.50644531 45.875 51.8125 C45.18535156 51.12736328 44.49570312 50.44222656 43.78515625 49.73632812 C41.05665137 47.02608284 38.32713538 44.31819438 35.5703125 41.63671875 C33.30237572 39.31018786 31.15799132 36.926532 29.0078125 34.4921875 C25.35046936 30.40099943 21.54772647 26.51959345 17.6171875 22.6953125 C17.06750305 22.15823669 16.5178186 21.62116089 15.95147705 21.06781006 C13.67851648 18.84891839 11.40390585 16.63223419 9.11132812 14.43359375 C7.41442102 12.80289818 5.73356094 11.15704072 4.0546875 9.5078125 C3.53091522 9.0129837 3.00714294 8.51815491 2.46749878 8.0083313 C1.03857422 6.59033203 1.03857422 6.59033203 -1 4 C-0.62741089 1.83810425 -0.62741089 1.83810425 0 0 Z M1 2 C1.93517609 3.10223427 2.8719885 4.20308032 3.8094635 5.30335999 C4.33097016 5.91654618 4.85247683 6.52973238 5.38978672 7.16149998 C7.88187618 10.0069035 10.55196662 12.65604787 13.24609375 15.30859375 C13.82029556 15.87900894 14.39449738 16.44942413 14.98609924 17.03712463 C17.40885446 19.44375215 19.83758538 21.84431429 22.26586914 24.24536133 C34.03119233 35.89035555 34.03119233 35.89035555 39.23071289 42.00805664 C43.26231961 46.54702162 47.67805556 50.73888722 52 55 C53.91975944 56.8927387 55.83587254 58.78906758 57.75 60.6875 C58.59046875 61.51636719 59.4309375 62.34523438 60.296875 63.19921875 C62.33438213 65.31033524 64.24851213 67.43156086 66.15380859 69.65600586 C70.30792177 74.44312743 74.78469256 78.88296535 79.29149246 83.336092 C80.82530421 84.85223036 82.35530373 86.37212663 83.8843689 87.89305115 C88.2265268 92.2109947 92.57444282 96.52310578 96.92675781 100.83081055 C99.60402896 103.48115922 102.27629202 106.13647495 104.94562912 108.79481316 C105.95552747 109.79855008 106.96731303 110.80039225 107.98109818 111.80020332 C121.29613542 124.93316149 121.29613542 124.93316149 122.875 131.8125 C122.61091299 135.84210539 120.71107137 137.79516351 118.01318359 140.68675232 C117.1945282 141.56687422 116.3758728 142.44699612 115.53240967 143.35378838 C111.70676162 147.3513542 107.83545861 151.29581946 103.9140625 155.19946289 C103.04544869 156.06822556 102.17683489 156.93698822 101.28189945 157.83207703 C98.90023386 160.21317334 96.51636511 162.5920223 94.13149762 164.96990895 C91.54898427 167.54599331 88.96942567 170.12503355 86.38951111 172.70372009 C81.92879782 177.1615595 77.46631689 181.61762288 73.00265503 186.07250977 C66.54751353 192.51505417 60.09565048 198.96087397 53.64465845 205.40757298 C43.17388295 215.87129718 32.70123912 226.33314914 22.22705078 236.79345703 C21.60138289 237.41829711 20.975715 238.04313719 20.33108747 238.68691182 C15.88743977 243.12465607 11.44372567 247.56233382 7 252 C1.90994396 257.08312098 -3.18007674 262.16627734 -8.27001953 267.24951172 C-9.21100876 268.18925876 -9.21100876 268.18925876 -10.17100787 269.14799058 C-20.61776933 279.58108312 -31.06257967 290.01612685 -41.50599098 300.45257282 C-47.94518319 306.88727928 -54.38615147 313.32019821 -60.82940298 319.75084001 C-65.23588039 324.14891408 -69.64060877 328.54873452 -74.04394335 332.94995517 C-76.58658255 335.49124518 -79.13005753 338.03168463 -81.67570686 340.56995964 C-84.42979457 343.31609876 -87.18005425 346.06605073 -89.92993164 348.81640625 C-90.74186981 349.62474946 -91.55380798 350.43309267 -92.39035034 351.26593113 C-93.48750618 352.36514849 -93.48750618 352.36514849 -94.60682678 353.48657227 C-95.5603911 354.43875389 -95.5603911 354.43875389 -96.53321934 355.41017151 C-98.65749044 357.71264713 -98.99500048 358.96428915 -99.4375 362.125 C-98.4952227 370.47088462 -90.67573481 376.60202482 -84.93359375 382.26171875 C-83.79882347 383.39224419 -83.79882347 383.39224419 -82.64112854 384.54560852 C-80.2446173 386.93102144 -77.84122794 389.30936162 -75.4375 391.6875 C-73.82049897 393.29445453 -72.20395822 394.90187237 -70.58789062 396.50976562 C-67.62319753 399.4581981 -64.65592307 402.40397525 -61.68530273 405.34643555 C-56.85705987 410.13081686 -52.06026603 414.9454728 -47.27676392 419.77453613 C-44.20608069 422.87205881 -41.13003263 425.96423064 -38.05371094 429.05615234 C-36.43634856 430.68359478 -34.82078272 432.31282462 -33.20703125 433.94384766 C-30.86414088 436.31110332 -28.51475649 438.67174628 -26.1640625 441.03125 C-25.45029449 441.75534058 -24.73652649 442.47943115 -24.00112915 443.22546387 C-16.61460694 451.07298721 -16.61460694 451.07298721 -6.875 454.5625 C-0.14256741 453.30441916 4.48088874 447.61911702 9.09472656 442.93164062 C11.164421 440.83330357 13.26346591 438.76732714 15.3671875 436.703125 C18.27268568 433.83770265 21.17462892 430.96913437 24.0546875 428.078125 C24.94389893 427.18722168 24.94389893 427.18722168 25.85107422 426.27832031 C27.56636991 424.45974051 29.17425255 422.61532768 30.78935242 420.71064758 C36.39388275 414.2991572 42.49580115 408.36475719 48.51928711 402.35131836 C49.88683897 400.98240962 51.25417841 399.61328864 52.62132263 398.24397278 C56.3173434 394.54341175 60.01649801 390.84599858 63.71637797 387.14929652 C67.59786665 383.27034909 71.47690408 379.38895157 75.3563385 375.50794983 C81.87012044 368.99235134 88.38600166 362.47885779 94.90307617 355.96655273 C102.42519942 348.44987111 109.94371356 340.92959395 117.46036333 333.40743917 C123.92752036 326.93573636 130.39663389 320.46599411 136.86737067 313.9978705 C140.7261774 310.14061848 144.58431559 306.28270426 148.44068718 302.4230175 C152.06719233 298.79361235 155.69615678 295.1666839 159.32699013 291.54160881 C160.65486391 290.21505123 161.98189872 288.88765319 163.30800629 287.55932999 C175.09292108 275.75654996 175.09292108 275.75654996 181.3422308 270.43108273 C183.93452816 268.19326098 186.33123181 265.79606841 188.75415039 263.37524414 C189.27076736 262.86037949 189.78738434 262.34551483 190.31965637 261.81504822 C191.99815101 260.14089425 193.67303198 258.46318096 195.34765625 256.78515625 C196.53000077 255.603487 197.71249357 254.42196609 198.89512634 253.24058533 C201.36180534 250.77537277 203.82668703 248.30838114 206.2902832 245.84008789 C209.42921932 242.69545516 212.57262471 239.55533444 215.71740055 236.41654301 C218.15662006 233.98095768 220.59342741 231.54297011 223.02953911 229.10427666 C224.18689277 227.94626161 225.34497387 226.78897307 226.50383186 225.63246346 C233.70291182 218.48989788 233.70291182 218.48989788 240.51147461 210.97973633 C244.83540284 205.92499988 249.60980855 201.31206831 254.34153748 196.64442825 C256.06949629 194.93881071 257.79319119 193.22898694 259.51574707 191.51791382 C264.40836379 186.65858991 269.30515897 181.80354015 274.21240234 176.95898438 C277.22911323 173.98021308 280.23821515 170.99392783 283.24278259 168.00291061 C284.37852159 166.87514648 285.51701398 165.75014733 286.65846252 164.62816238 C301.0779917 150.81894314 301.0779917 150.81894314 306.4375 132.3125 C305.98888754 111.76177665 282.96629762 95.79150216 269.46924877 82.26906013 C267.96980906 80.76665525 266.4709435 79.26367974 264.97223663 77.76054382 C260.26307172 73.03778869 255.55197329 68.31697543 250.83795714 63.59906244 C245.43011108 58.18671771 240.02891173 52.76785144 234.63325286 47.34335756 C230.43272076 43.12116889 226.22640237 38.90480172 222.01569581 34.69275999 C219.51251785 32.18853942 217.01177541 29.68200239 214.51708221 27.16932678 C211.74076547 24.37337505 208.95247998 21.58954874 206.16308594 18.80664062 C204.94410614 17.57383865 204.94410614 17.57383865 203.70050049 16.31613159 C192.41893468 5.1163999 182.26529182 1.6113873 166.45968628 1.6267395 C164.81475646 1.63735312 163.1698285 1.64825749 161.52490234 1.65942383 C159.76975519 1.66027125 158.01460698 1.65979272 156.25946045 1.65809631 C151.52043989 1.65723942 146.78164948 1.6748154 142.04268217 1.69581819 C137.08060101 1.71463622 132.11851393 1.71633946 127.15640259 1.71989441 C117.77145368 1.72919985 108.38661024 1.75379325 99.00170767 1.78394288 C88.31245582 1.8175337 77.6231988 1.83398466 66.93390727 1.84902918 C44.95587943 1.88034418 22.97794637 1.93307538 1 2 Z " fill="#F3F9FE" transform="translate(343,202)"/>
<path d="M0 0 C0.495 1.485 0.495 1.485 1 3 C0.14079956 3.8525386 -0.71840088 4.70507721 -1.6036377 5.58345032 C-9.7324233 13.65120304 -17.85310991 21.72703118 -25.9661026 29.81066608 C-30.13649901 33.96546161 -34.3096162 38.1174429 -38.48925781 42.26293945 C-42.52893456 46.26982334 -46.56106198 50.2841671 -50.58824158 54.30360985 C-52.11964406 55.82950444 -53.65366772 57.35277341 -55.19044495 58.87325478 C-72.29940924 74.53893346 -72.29940924 74.53893346 -79.5 95.5625 C-79.17927754 113.61728811 -63.81938851 125.33597362 -51.875 137.125 C-40.28744103 148.56285811 -40.28744103 148.56285811 -36.62890625 152.86328125 C-31.72538258 158.60478633 -26.29295068 163.85552544 -20.94848633 169.18188477 C-19.06671726 171.05829475 -17.19035262 172.93998969 -15.31445312 174.82226562 C-8.32804469 181.8657317 -8.32804469 181.8657317 -0.97265625 188.515625 C2.70344766 191.64146379 6.08316485 195.02349429 9.4765625 198.44921875 C10.05549759 199.0336525 10.63443268 199.61808624 11.23091125 200.2202301 C13.6416062 202.65866488 16.04866841 205.1006126 18.45117188 207.54711914 C20.22600827 209.35228441 22.00712229 211.15106938 23.7890625 212.94921875 C24.32359039 213.49720627 24.85811829 214.04519379 25.40884399 214.60978699 C34.14748768 223.40584181 42.39044071 225.2633854 54.40625 225.4140625 C55.3715564 225.43342865 56.33686279 225.4527948 57.3314209 225.4727478 C60.38752657 225.53210018 63.44367082 225.57875038 66.5 225.625 C68.58334895 225.66322064 70.66668278 225.7022747 72.75 225.7421875 C77.8332093 225.83776489 82.91649247 225.92195813 88 226 C88 226.33 88 226.66 88 227 C81.47206204 227.24570708 74.94363439 227.45770263 68.41381836 227.64697266 C66.19547105 227.71516983 63.97734156 227.790907 61.75952148 227.87451172 C58.56001719 227.99378361 55.360694 228.08535834 52.16015625 228.171875 C50.68773216 228.23565338 50.68773216 228.23565338 49.18556213 228.30072021 C40.38451842 228.49093968 33.80908944 225.87711923 26.9375 220.375 C26.18339844 219.78460938 25.42929688 219.19421875 24.65234375 218.5859375 C24.10707031 218.06257812 23.56179687 217.53921875 23 217 C23 216.34 23 215.68 23 215 C22.01 214.67 21.02 214.34 20 214 C18.28349947 212.2183159 16.76636401 210.31819997 15.20703125 208.3984375 C13.43515519 206.47289431 11.73343858 204.89646926 9.74316406 203.22290039 C3.15195665 197.48848922 -2.92875083 191.21489294 -9.09765625 185.03515625 C-10.45936258 183.67412487 -11.82121722 182.31324185 -13.18321228 180.95249939 C-16.02651919 178.11066045 -18.86802599 175.26703718 -21.70825195 172.42211914 C-25.33146031 168.79321408 -28.95914043 165.1688178 -32.58818913 161.54575443 C-35.39799146 158.7395821 -38.2053874 155.93101201 -41.01208305 153.12173271 C-42.3480657 151.78508754 -43.68477894 150.44917216 -45.02226448 149.11403084 C-57.64704364 136.50653168 -57.64704364 136.50653168 -62.69992065 130.51339722 C-64.67631487 128.21271494 -66.86654368 126.1513365 -69.0625 124.0625 C-77.39427193 115.81949885 -82.26493345 107.92614303 -83.015625 96.1171875 C-82.93353322 79.7398778 -68.5728886 68.1493924 -57.8200531 57.50286293 C-57.04412308 56.73492598 -56.26819305 55.96698902 -55.46875 55.17578125 C-53.86526826 53.57790495 -52.26245514 51.97935744 -50.66027832 50.38017273 C-46.47155302 46.20282148 -42.27389351 42.03456434 -38.07421875 37.8682251 C-33.77835223 33.60322086 -29.49112103 29.32955512 -25.203125 25.05664062 C-16.81044622 16.69599451 -8.40829016 8.34494357 0 0 Z " fill="#FEF3E8" transform="translate(101,237)"/>
<path d="M0 0 C0 3 0 3 -1.53050232 4.89964581 C-2.25318802 5.61956613 -2.97587372 6.33948645 -3.72045898 7.08122253 C-4.54504608 7.90993362 -5.36963318 8.73864471 -6.21920776 9.59246826 C-7.13558014 10.49805481 -8.05195251 11.40364136 -8.99609375 12.33666992 C-9.96224285 13.30197312 -10.92773245 14.26793679 -11.89260864 15.23451233 C-14.51807975 17.86084622 -17.15271581 20.47781074 -19.78905106 23.09323287 C-22.54106019 25.82652231 -25.28460859 28.56827688 -28.02905273 31.30915833 C-33.22921501 36.49998628 -38.43697921 41.68311792 -43.64749432 46.86355144 C-49.57830789 52.76086415 -55.50063241 58.66667037 -61.42224693 64.57321775 C-73.60538703 76.7249774 -85.79918465 88.86598759 -98 101 C-98 98 -98 98 -96.27734375 96.01953125 C-95.50519531 95.29121094 -94.73304688 94.56289063 -93.9375 93.8125 C-91.16685281 91.18393728 -88.56395433 88.51735279 -86.09765625 85.60644531 C-80.93839989 79.68646462 -75.34027154 74.19620185 -69.78515625 68.65234375 C-68.603487 67.46999923 -67.42196609 66.28750643 -66.24058533 65.10487366 C-63.77537277 62.63819466 -61.30838114 60.17331297 -58.84008789 57.7097168 C-55.69545516 54.57078068 -52.55533444 51.42737529 -49.41654301 48.28259945 C-46.98095768 45.84337994 -44.54297011 43.40657259 -42.10427666 40.97046089 C-40.94626161 39.81310723 -39.78897307 38.65502613 -38.63246346 37.49616814 C-33.11995698 31.97492327 -27.60349757 26.51731575 -21.66868591 21.44407654 C-19.2856021 19.38176187 -17.06422478 17.17648942 -14.84375 14.94140625 C-13.9671875 14.06162109 -13.090625 13.18183594 -12.1875 12.27539062 C-10.8571875 10.93250977 -10.8571875 10.93250977 -9.5 9.5625 C-8.12328125 8.17901367 -8.12328125 8.17901367 -6.71875 6.76757812 C-4.47684945 4.51400101 -2.237334 2.25810925 0 0 Z " fill="#FCFCFC" transform="translate(607,390)"/>
<path d="M0 0 C0 3 0 3 -1.86328125 5.0859375 C-2.67152344 5.84132813 -3.47976563 6.59671875 -4.3125 7.375 C-6.70669915 9.61883881 -8.72248214 11.52231826 -10.37426758 14.36547852 C-12.09205523 17.14917675 -13.95696061 19.20014629 -16.2734375 21.50390625 C-17.0984375 22.32697266 -17.9234375 23.15003906 -18.7734375 23.99804688 C-19.63195312 24.84431641 -20.49046875 25.69058594 -21.375 26.5625 C-22.22578125 27.41263672 -23.0765625 28.26277344 -23.953125 29.13867188 C-27.83371244 32.99205894 -31.71480599 36.59869832 -36 40 C-37.68528688 41.64783606 -39.35697047 43.31002677 -41 45 C-41.99 44.67 -42.98 44.34 -44 44 C-29.48 29.48 -14.96 14.96 0 0 Z " fill="#EBF4FD" transform="translate(518,477)"/>
<path d="M0 0 C4.82830185 4.03188269 9.40023472 8.24076953 13.8515625 12.68359375 C14.4734848 13.30218765 15.0954071 13.92078156 15.73617554 14.55812073 C17.03993835 15.85685765 18.34238328 17.15691879 19.64355469 18.45825195 C21.62155296 20.43405678 23.60742708 22.40170936 25.59375 24.36914062 C26.86767725 25.64013431 28.14113089 26.91160291 29.4140625 28.18359375 C30.29392319 29.05267616 30.29392319 29.05267616 31.19155884 29.9393158 C40.44749624 39.24632124 40.44749624 39.24632124 41.48828125 44.43359375 C41.32552083 46.2890625 41.16276042 48.14453125 41 50 C40.01 50 39.02 50 38 50 C38.144375 49.030625 38.28875 48.06125 38.4375 47.0625 C38.24526206 35.60031301 20.50595978 23.43510377 12.86010742 15.9765625 C10.74548166 13.90995878 8.63994483 11.83442696 6.53515625 9.7578125 C5.87902847 9.12344269 5.2229007 8.48907288 4.54689026 7.83547974 C3.94884079 7.24411224 3.35079132 6.65274475 2.73461914 6.04345703 C2.2050209 5.52655304 1.67542267 5.00964905 1.129776 4.4770813 C0 3 0 3 0 0 Z " fill="#E6F2FE" transform="translate(425,288)"/>
<path d="M0 0 C0 3 0 3 -1.86328125 5.0859375 C-2.67152344 5.84132813 -3.47976563 6.59671875 -4.3125 7.375 C-7.53512524 10.39523815 -9.8187594 13.16554245 -12 17 C-15.13513693 20.63015855 -17.1371148 22.58318127 -22 23 C-17.47008204 17.56266945 -12.65705784 12.53541069 -7.625 7.5625 C-6.88894531 6.83095703 -6.15289062 6.09941406 -5.39453125 5.34570312 C-3.59863926 3.56147277 -1.80044015 1.77963876 0 0 Z " fill="#D2E3F6" transform="translate(518,477)"/>
<path d="M0 0 C-1.47721422 3.45201639 -3.43794001 5.64961936 -6.125 8.25 C-6.84945312 8.95640625 -7.57390625 9.6628125 -8.3203125 10.390625 C-8.87460938 10.92171875 -9.42890625 11.4528125 -10 12 C-10.33 11.01 -10.66 10.02 -11 9 C-9.54782324 7.49403892 -8.08807139 5.99537896 -6.625 4.5 C-5.40683594 3.24703125 -5.40683594 3.24703125 -4.1640625 1.96875 C-2 0 -2 0 0 0 Z " fill="#F5F5F5" transform="translate(113,226)"/>
<path d="M0 0 C4.13621084 3.3810038 7.81316569 6.66590534 11 11 C7.46180427 10.42073787 5.74971757 9.15676523 3.25 6.625 C2.63640625 6.01914062 2.0228125 5.41328125 1.390625 4.7890625 C0 3 0 3 0 0 Z " fill="#E1EBF5" transform="translate(425,288)"/>
<path d="M0 0 C0.33 0.99 0.66 1.98 1 3 C-0.28548409 4.33929505 -1.57858155 5.67128643 -2.875 7 C-3.59429688 7.7425 -4.31359375 8.485 -5.0546875 9.25 C-7 11 -7 11 -9 11 C-7.59155282 7.78475695 -5.89655214 5.67816132 -3.375 3.25 C-2.74335937 2.63640625 -2.11171875 2.0228125 -1.4609375 1.390625 C-0.73777344 0.70226562 -0.73777344 0.70226562 0 0 Z " fill="#F6F6F6" transform="translate(557,439)"/>
<path d="M0 0 C1.10370043 3.3111013 0.92673641 5.24748949 0.5625 8.6875 C0.40974609 10.17830078 0.40974609 10.17830078 0.25390625 11.69921875 C0.12822266 12.83810547 0.12822266 12.83810547 0 14 C-0.33 14 -0.66 14 -1 14 C-1.22142255 12.04310341 -1.4267568 10.08438048 -1.625 8.125 C-1.74101562 7.03445313 -1.85703125 5.94390625 -1.9765625 4.8203125 C-1.98429687 3.88960938 -1.99203125 2.95890625 -2 2 C-1.34 1.34 -0.68 0.68 0 0 Z " fill="#FFEEDE" transform="translate(21,323)"/>
</svg>
